<svg xmlns="http://www.w3.org/2000/svg" xmlns:xlink="http://www.w3.org/1999/xlink" width="500" zoomAndPan="magnify" viewBox="0 0 375 374.999991" height="500" preserveAspectRatio="xMidYMid meet" version="1.0"><defs><g/></defs><g fill="#ffffff" fill-opacity="1"><g transform="translate(182.215013, 269.059348)"><g><path d="M 6.546875 0 L 6.546875 -1.8125 L 10.359375 -1.8125 C 14.597656 -1.8125 17.867188 -2.78125 20.171875 -4.71875 C 22.484375 -6.664062 23.640625 -9.941406 23.640625 -14.546875 L 23.640625 -115.796875 C 23.640625 -120.160156 22.484375 -123.28125 20.171875 -125.15625 C 17.867188 -127.039062 14.597656 -127.984375 10.359375 -127.984375 L 6.546875 -127.984375 L 6.546875 -129.796875 L 62.171875 -129.796875 L 62.171875 -127.984375 L 58.359375 -127.984375 C 53.992188 -127.984375 50.660156 -127.015625 48.359375 -125.078125 C 46.054688 -123.140625 44.90625 -119.867188 44.90625 -115.265625 L 44.90625 -68.71875 L 100.53125 -68.71875 L 100.53125 -115.265625 C 100.53125 -119.867188 99.410156 -123.140625 97.171875 -125.078125 C 94.929688 -127.015625 91.628906 -127.984375 87.265625 -127.984375 L 83.4375 -127.984375 L 83.4375 -129.796875 L 139.078125 -129.796875 L 139.078125 -127.984375 L 135.25 -127.984375 C 131.007812 -127.984375 127.707031 -127.039062 125.34375 -125.15625 C 122.976562 -123.28125 121.796875 -120.160156 121.796875 -115.796875 L 121.796875 -14.546875 C 121.796875 -9.941406 122.976562 -6.664062 125.34375 -4.71875 C 127.707031 -2.78125 131.007812 -1.8125 135.25 -1.8125 L 139.078125 -1.8125 L 139.078125 0 L 83.4375 0 L 83.4375 -1.8125 L 87.265625 -1.8125 C 91.628906 -1.8125 94.929688 -2.78125 97.171875 -4.71875 C 99.410156 -6.664062 100.53125 -9.941406 100.53125 -14.546875 L 100.53125 -66.90625 L 44.90625 -66.90625 L 44.90625 -14.546875 C 44.90625 -9.941406 46.054688 -6.664062 48.359375 -4.71875 C 50.660156 -2.78125 53.992188 -1.8125 58.359375 -1.8125 L 62.171875 -1.8125 L 62.171875 0 Z M 6.546875 0 "/></g></g></g><g fill="#ffffff" fill-opacity="1"><g transform="translate(76.77446, 216.929235)"><g><path d="M 6.359375 0 L 6.359375 -1.8125 L 10.1875 -1.8125 C 14.425781 -1.8125 17.726562 -2.78125 20.09375 -4.71875 C 22.457031 -6.664062 23.640625 -9.878906 23.640625 -14.359375 L 23.640625 -115.984375 C 23.640625 -120.222656 22.457031 -123.28125 20.09375 -125.15625 C 17.726562 -127.039062 14.425781 -127.984375 10.1875 -127.984375 L 6.359375 -127.984375 L 6.359375 -129.796875 L 58 -129.796875 C 74.113281 -129.796875 86.078125 -126.882812 93.890625 -121.0625 C 101.710938 -115.25 105.625 -106.890625 105.625 -95.984375 C 105.625 -89.078125 104.257812 -83.378906 101.53125 -78.890625 C 98.800781 -74.410156 95.253906 -70.804688 90.890625 -68.078125 C 86.535156 -65.359375 81.992188 -63.332031 77.265625 -62 L 101.265625 -23.453125 C 105.015625 -17.515625 108.101562 -13 110.53125 -9.90625 C 112.957031 -6.8125 115.078125 -4.6875 116.890625 -3.53125 C 118.710938 -2.382812 120.53125 -1.8125 122.34375 -1.8125 L 122.890625 -1.8125 L 122.890625 0 L 119.265625 0 C 111.742188 0 105.800781 -0.390625 101.4375 -1.171875 C 97.070312 -1.960938 93.492188 -3.539062 90.703125 -5.90625 C 87.921875 -8.269531 85.078125 -11.816406 82.171875 -16.546875 L 55.453125 -60.53125 L 44.71875 -60.53125 L 44.71875 -14.359375 C 44.71875 -9.878906 45.898438 -6.664062 48.265625 -4.71875 C 50.628906 -2.78125 53.929688 -1.8125 58.171875 -1.8125 L 62 -1.8125 L 62 0 Z M 44.71875 -62.359375 L 56.90625 -62.359375 C 66.238281 -62.359375 72.929688 -64.875 76.984375 -69.90625 C 81.046875 -74.9375 83.078125 -83.207031 83.078125 -94.71875 C 83.078125 -106.46875 81.015625 -114.945312 76.890625 -120.15625 C 72.773438 -125.375 65.988281 -127.984375 56.53125 -127.984375 L 44.71875 -127.984375 Z M 44.71875 -62.359375 "/></g></g></g><g fill="#5271ff" fill-opacity="1"><g transform="translate(60.965698, 246.585045)"><g><path d="M 5.269531 0.472656 L 6.621094 -5.824219 L 6.015625 -5.824219 L 5.105469 -1.59375 L 3.359375 -6.167969 L 1.601562 -1.59375 L 0.703125 -5.824219 L 0.0859375 -5.824219 L 1.449219 0.472656 L 3.359375 -4.601562 Z M 5.269531 0.472656 "/></g></g></g><g fill="#5271ff" fill-opacity="1"><g transform="translate(74.253356, 246.585045)"><g><path d="M 4.105469 0 L 4.105469 -0.558594 L 1.242188 -0.558594 L 1.242188 -2.628906 L 4.019531 -2.628906 L 4.019531 -3.195312 L 1.242188 -3.195312 L 1.242188 -5.269531 L 4.105469 -5.269531 L 4.105469 -5.824219 L 0.640625 -5.824219 L 0.640625 0 Z M 4.105469 0 "/></g></g></g><g fill="#5271ff" fill-opacity="1"><g transform="translate(85.57912, 246.585045)"><g><path d="M 4.445312 -1.621094 C 4.445312 -2.03125 4.34375 -2.382812 4.148438 -2.65625 C 3.941406 -2.929688 3.667969 -3.117188 3.332031 -3.210938 C 3.53125 -3.296875 3.699219 -3.453125 3.828125 -3.683594 C 3.890625 -3.785156 3.933594 -3.890625 3.964844 -4 C 4 -4.113281 4.019531 -4.265625 4.019531 -4.464844 C 4.019531 -4.652344 3.964844 -4.847656 3.882812 -5.039062 C 3.625 -5.558594 3.066406 -5.824219 2.21875 -5.824219 L 0.640625 -5.824219 L 0.640625 0 L 2.425781 0 C 3.015625 0 3.488281 -0.128906 3.847656 -0.402344 C 4.027344 -0.539062 4.171875 -0.71875 4.285156 -0.941406 C 4.386719 -1.15625 4.445312 -1.378906 4.445312 -1.621094 Z M 3.417969 -4.371094 C 3.417969 -4.050781 3.324219 -3.820312 3.136719 -3.667969 C 2.945312 -3.511719 2.699219 -3.433594 2.390625 -3.433594 L 1.242188 -3.433594 L 1.242188 -5.25 L 2.21875 -5.25 C 3.015625 -5.25 3.417969 -4.953125 3.417969 -4.371094 Z M 3.847656 -1.738281 C 3.847656 -1.386719 3.726562 -1.105469 3.488281 -0.890625 C 3.253906 -0.675781 2.957031 -0.574219 2.597656 -0.574219 L 1.242188 -0.574219 L 1.242188 -2.835938 L 2.691406 -2.835938 C 2.988281 -2.835938 3.253906 -2.734375 3.488281 -2.527344 C 3.589844 -2.433594 3.675781 -2.320312 3.742188 -2.191406 C 3.8125 -2.054688 3.847656 -1.910156 3.847656 -1.738281 Z M 3.847656 -1.738281 "/></g></g></g><g fill="#5271ff" fill-opacity="1"><g transform="translate(96.776383, 246.585045)"><g/></g></g><g fill="#5271ff" fill-opacity="1"><g transform="translate(105.66907, 246.585045)"><g><path d="M 5.164062 -2.914062 C 5.164062 -3.332031 5.082031 -3.71875 4.925781 -4.078125 C 4.773438 -4.4375 4.558594 -4.746094 4.292969 -5.003906 C 4.019531 -5.261719 3.699219 -5.457031 3.339844 -5.601562 C 2.972656 -5.75 2.578125 -5.824219 2.167969 -5.824219 L 0.640625 -5.824219 L 0.640625 0 L 2.167969 0 C 2.578125 0 2.972656 -0.0703125 3.339844 -0.214844 C 3.699219 -0.359375 4.019531 -0.566406 4.292969 -0.824219 C 4.558594 -1.078125 4.773438 -1.378906 4.925781 -1.738281 C 5.082031 -2.097656 5.164062 -2.484375 5.164062 -2.914062 Z M 4.582031 -2.914062 C 4.582031 -2.246094 4.34375 -1.6875 3.882812 -1.25 C 3.417969 -0.8125 2.851562 -0.601562 2.183594 -0.601562 L 1.242188 -0.601562 L 1.242188 -5.226562 L 2.183594 -5.226562 C 2.851562 -5.226562 3.417969 -5.003906 3.882812 -4.574219 C 4.34375 -4.128906 4.582031 -3.574219 4.582031 -2.914062 Z M 4.582031 -2.914062 "/></g></g></g><g fill="#5271ff" fill-opacity="1"><g transform="translate(117.800162, 246.585045)"><g><path d="M 4.105469 0 L 4.105469 -0.558594 L 1.242188 -0.558594 L 1.242188 -2.628906 L 4.019531 -2.628906 L 4.019531 -3.195312 L 1.242188 -3.195312 L 1.242188 -5.269531 L 4.105469 -5.269531 L 4.105469 -5.824219 L 0.640625 -5.824219 L 0.640625 0 Z M 4.105469 0 "/></g></g></g><g fill="#5271ff" fill-opacity="1"><g transform="translate(129.125929, 246.585045)"><g><path d="M 2.734375 0.351562 L 5.371094 -5.824219 L 4.71875 -5.824219 L 2.734375 -1.132812 L 0.738281 -5.824219 L 0.0859375 -5.824219 Z M 2.734375 0.351562 "/></g></g></g><g fill="#5271ff" fill-opacity="1"><g transform="translate(141.16278, 246.585045)"><g><path d="M 4.105469 0 L 4.105469 -0.558594 L 1.242188 -0.558594 L 1.242188 -2.628906 L 4.019531 -2.628906 L 4.019531 -3.195312 L 1.242188 -3.195312 L 1.242188 -5.269531 L 4.105469 -5.269531 L 4.105469 -5.824219 L 0.640625 -5.824219 L 0.640625 0 Z M 4.105469 0 "/></g></g></g><g fill="#5271ff" fill-opacity="1"><g transform="translate(152.488547, 246.585045)"><g><path d="M 1.242188 -0.601562 L 1.242188 -5.824219 L 0.640625 -5.824219 L 0.640625 0 L 3.324219 0 L 3.324219 -0.601562 Z M 1.242188 -0.601562 "/></g></g></g><g fill="#5271ff" fill-opacity="1"><g transform="translate(162.563515, 246.585045)"><g><path d="M 5.773438 -2.929688 C 5.773438 -2.261719 5.535156 -1.695312 5.070312 -1.234375 C 4.601562 -0.761719 4.035156 -0.53125 3.375 -0.53125 C 2.714844 -0.53125 2.148438 -0.761719 1.6875 -1.234375 C 1.214844 -1.695312 0.984375 -2.261719 0.984375 -2.929688 C 0.984375 -3.582031 1.214844 -4.148438 1.6875 -4.617188 C 2.148438 -5.082031 2.714844 -5.320312 3.375 -5.320312 C 4.035156 -5.320312 4.601562 -5.082031 5.070312 -4.617188 C 5.535156 -4.148438 5.773438 -3.582031 5.773438 -2.929688 Z M 6.375 -2.929688 C 6.375 -3.339844 6.289062 -3.726562 6.132812 -4.09375 C 5.980469 -4.453125 5.765625 -4.773438 5.492188 -5.046875 C 5.21875 -5.3125 4.902344 -5.527344 4.539062 -5.679688 C 4.171875 -5.835938 3.785156 -5.917969 3.375 -5.917969 C 2.964844 -5.917969 2.570312 -5.835938 2.210938 -5.679688 C 1.851562 -5.527344 1.535156 -5.3125 1.257812 -5.046875 C 0.984375 -4.773438 0.769531 -4.453125 0.617188 -4.09375 C 0.460938 -3.726562 0.386719 -3.339844 0.386719 -2.929688 C 0.386719 -2.519531 0.460938 -2.125 0.617188 -1.765625 C 0.769531 -1.394531 0.984375 -1.078125 1.257812 -0.804688 C 1.535156 -0.53125 1.851562 -0.316406 2.210938 -0.164062 C 2.570312 -0.0078125 2.964844 0.0703125 3.375 0.0703125 C 3.785156 0.0703125 4.171875 -0.0078125 4.539062 -0.164062 C 4.902344 -0.316406 5.21875 -0.53125 5.492188 -0.804688 C 5.765625 -1.078125 5.980469 -1.394531 6.132812 -1.765625 C 6.289062 -2.125 6.375 -2.519531 6.375 -2.929688 Z M 6.375 -2.929688 "/></g></g></g><g fill="#5271ff" fill-opacity="1"><g transform="translate(175.902572, 246.585045)"><g><path d="M 1.242188 -2.886719 L 1.242188 -5.25 L 2.597656 -5.25 C 2.945312 -5.25 3.230469 -5.140625 3.445312 -4.925781 C 3.648438 -4.703125 3.761719 -4.429688 3.761719 -4.085938 C 3.761719 -3.734375 3.648438 -3.453125 3.425781 -3.222656 C 3.203125 -3 2.929688 -2.886719 2.597656 -2.886719 Z M 4.359375 -4.070312 C 4.359375 -4.582031 4.171875 -5.003906 3.8125 -5.335938 C 3.453125 -5.664062 3.023438 -5.824219 2.511719 -5.824219 L 0.640625 -5.824219 L 0.640625 0 L 1.242188 0 L 1.242188 -2.304688 L 2.511719 -2.304688 C 3.023438 -2.304688 3.460938 -2.46875 3.8125 -2.792969 C 4.171875 -3.136719 4.359375 -3.554688 4.359375 -4.070312 Z M 4.359375 -4.070312 "/></g></g></g><g fill="#5271ff" fill-opacity="1"><g transform="translate(187.014159, 246.585045)"><g><path d="M 4.105469 0 L 4.105469 -0.558594 L 1.242188 -0.558594 L 1.242188 -2.628906 L 4.019531 -2.628906 L 4.019531 -3.195312 L 1.242188 -3.195312 L 1.242188 -5.269531 L 4.105469 -5.269531 L 4.105469 -5.824219 L 0.640625 -5.824219 L 0.640625 0 Z M 4.105469 0 "/></g></g></g><g fill="#5271ff" fill-opacity="1"><g transform="translate(198.339926, 246.585045)"><g><path d="M 1.242188 -2.878906 L 1.242188 -5.25 L 2.597656 -5.25 C 2.945312 -5.25 3.230469 -5.140625 3.445312 -4.917969 C 3.648438 -4.695312 3.761719 -4.421875 3.761719 -4.078125 C 3.761719 -3.734375 3.648438 -3.453125 3.425781 -3.222656 C 3.203125 -2.988281 2.929688 -2.878906 2.597656 -2.878906 Z M 4.359375 -4.070312 C 4.359375 -4.566406 4.171875 -4.996094 3.8125 -5.328125 C 3.460938 -5.65625 3.023438 -5.824219 2.511719 -5.824219 L 0.640625 -5.824219 L 0.640625 0 L 1.242188 0 L 1.242188 -2.304688 L 1.9375 -2.304688 L 3.648438 0 L 4.453125 0 L 2.65625 -2.304688 C 3.109375 -2.332031 3.496094 -2.492188 3.8125 -2.792969 C 4.171875 -3.128906 4.359375 -3.554688 4.359375 -4.070312 Z M 4.359375 -4.070312 "/></g></g></g><g fill="#5271ff" fill-opacity="1"><g transform="translate(85.49262, 227.197003)"><g><path d="M 21 -13.558594 C 22.664062 -16.371094 22.042969 -17.90625 21.230469 -18.703125 C 18.597656 -21.285156 9.898438 -19.585938 4.613281 -16.351562 C 1.183594 -14.265625 -0.316406 -11.878906 0.371094 -9.652344 C 0.441406 -9.40625 0.707031 -9.261719 0.953125 -9.332031 C 1.203125 -9.421875 1.324219 -9.667969 1.253906 -9.917969 C 0.511719 -12.339844 3.339844 -14.496094 5.089844 -15.574219 C 10.5 -18.863281 18.457031 -20.132812 20.578125 -18.03125 C 21.425781 -17.21875 21.285156 -15.875 20.207031 -14.019531 C 17.976562 -10.234375 12.691406 -7.9375 9.441406 -7.441406 C 9.40625 -7.441406 9.332031 -7.511719 9.351562 -7.582031 C 9.367188 -7.65625 9.367188 -7.65625 9.386719 -7.707031 C 9.953125 -10.640625 10.695312 -14.300781 11.773438 -14.566406 C 12.019531 -14.621094 12.164062 -14.867188 12.109375 -15.113281 C 12.039062 -15.363281 11.789062 -15.519531 11.542969 -15.46875 C 9.898438 -15.0625 9.246094 -11.789062 8.484375 -7.972656 C 8.46875 -7.882812 8.378906 -7.832031 8.308594 -7.9375 C 7.707031 -8.855469 7.265625 -9.332031 6.753906 -9.261719 C 6.203125 -9.175781 6.046875 -8.554688 5.992188 -8.34375 C 5.761719 -7.65625 6.132812 -6.894531 6.839844 -6.648438 C 7.230469 -6.503906 7.636719 -6.433594 8.0625 -6.417969 C 8.097656 -6.417969 8.167969 -6.417969 8.148438 -6.3125 C 7.617188 -3.78125 6.964844 -1.253906 6.082031 -1.023438 C 5.921875 -0.988281 5.78125 -0.867188 5.746094 -0.707031 C 5.691406 -0.53125 5.746094 -0.371094 5.851562 -0.246094 C 5.976562 -0.125 6.152344 -0.0898438 6.3125 -0.125 C 7.566406 -0.460938 8.238281 -2.441406 8.820312 -5.039062 C 8.839844 -5.089844 8.855469 -5.109375 8.910156 -5.125 C 8.945312 -5.125 8.980469 -5.109375 8.996094 -5.074219 C 10.570312 -2.617188 12.726562 0.210938 15.644531 0.210938 C 15.769531 0.210938 15.890625 0.210938 16.035156 0.195312 C 19.039062 -0.0703125 19.992188 -3.253906 20.046875 -3.375 C 20.117188 -3.625 19.976562 -3.890625 19.726562 -3.960938 C 19.480469 -4.03125 19.214844 -3.890625 19.144531 -3.640625 C 19.144531 -3.625 18.332031 -0.9375 15.945312 -0.726562 C 15.839844 -0.726562 15.75 -0.726562 15.644531 -0.726562 C 13.027344 -0.726562 10.960938 -3.675781 9.476562 -6.0625 C 9.421875 -6.152344 9.421875 -6.257812 9.457031 -6.363281 C 9.511719 -6.453125 9.597656 -6.523438 9.703125 -6.539062 C 13.3125 -7.089844 18.667969 -9.5625 21 -13.558594 Z M 7.195312 -7.511719 C 6.839844 -7.65625 6.789062 -7.867188 6.875 -8.113281 C 6.929688 -8.238281 6.964844 -8.203125 7 -8.183594 C 7.160156 -7.972656 7.320312 -7.761719 7.460938 -7.546875 C 7.53125 -7.441406 7.441406 -7.425781 7.40625 -7.441406 C 7.335938 -7.460938 7.265625 -7.476562 7.195312 -7.511719 Z M 7.195312 -7.511719 "/></g></g></g><g fill="#5271ff" fill-opacity="1"><g transform="translate(106.504417, 227.197003)"><g><path d="M 12.886719 -5.019531 C 12.796875 -5.109375 12.691406 -5.144531 12.570312 -5.144531 C 12.445312 -5.144531 12.320312 -5.109375 12.234375 -5.019531 C 10.113281 -2.898438 7.105469 -1.925781 4.152344 -2.421875 C 3.925781 -2.476562 3.765625 -2.6875 3.800781 -2.917969 C 3.941406 -3.765625 3.871094 -4.632812 3.375 -4.914062 C 3.058594 -5.089844 2.582031 -5.109375 2.015625 -4.152344 C 1.804688 -3.835938 1.730469 -3.445312 1.804688 -3.074219 C 1.890625 -2.703125 2.121094 -2.367188 2.441406 -2.175781 C 2.632812 -2.015625 2.402344 -1.75 2.28125 -1.625 C 1.945312 -1.21875 1.359375 -1.148438 0.953125 -1.46875 C 0.441406 -1.695312 0.210938 -2.261719 0.40625 -2.773438 C 0.636719 -3.710938 1.554688 -4.527344 1.890625 -4.527344 C 2.140625 -4.527344 2.351562 -4.738281 2.351562 -4.984375 C 2.367188 -5.234375 2.15625 -5.445312 1.910156 -5.460938 L 1.890625 -5.460938 C 1.007812 -5.460938 -0.175781 -4.261719 -0.496094 -3.003906 C -0.796875 -2.085938 -0.371094 -1.078125 0.511719 -0.652344 C 0.847656 -0.460938 1.21875 -0.371094 1.609375 -0.355469 C 2.367188 -0.390625 3.039062 -0.847656 3.359375 -1.554688 C 3.394531 -1.609375 3.484375 -1.644531 3.554688 -1.625 C 5.796875 -0.953125 9.898438 -1.378906 12.886719 -4.347656 C 12.976562 -4.4375 13.027344 -4.5625 13.027344 -4.683594 C 13.027344 -4.808594 12.976562 -4.933594 12.886719 -5.019531 Z M 2.882812 -3.003906 C 2.6875 -3.183594 2.652344 -3.464844 2.8125 -3.675781 C 2.863281 -3.765625 2.898438 -3.816406 2.933594 -3.871094 C 2.953125 -3.589844 2.933594 -3.289062 2.882812 -3.003906 Z M 2.882812 -3.003906 "/></g></g></g><g fill="#5271ff" fill-opacity="1"><g transform="translate(118.715652, 227.197003)"><g><path d="M 11.71875 -4.632812 C 11.613281 -4.71875 11.507812 -4.773438 11.382812 -4.773438 C 11.261719 -4.773438 11.136719 -4.71875 11.046875 -4.632812 C 9.667969 -3.199219 7.460938 -3.039062 5.886719 -4.242188 C 5.480469 -4.527344 4.933594 -4.507812 4.578125 -4.171875 C 4.453125 -4.046875 4.332031 -3.941406 4.226562 -3.816406 C 4.066406 -3.660156 3.855469 -3.605469 3.640625 -3.675781 C 3.445312 -3.746094 3.304688 -3.90625 3.269531 -4.117188 C 3.21875 -4.4375 3.128906 -4.738281 3.023438 -5.019531 C 2.953125 -5.195312 2.773438 -5.304688 2.582031 -5.304688 C 2.386719 -5.304688 2.226562 -5.179688 2.15625 -5.003906 C 1.644531 -3.625 0.601562 -1.609375 -0.140625 -1.46875 C -0.195312 -1.449219 -0.335938 -1.433594 -0.546875 -1.660156 C -0.566406 -1.804688 -0.546875 -1.945312 -0.496094 -2.066406 C 0.125 -3.535156 1.203125 -4.753906 2.5625 -5.585938 C 2.792969 -5.691406 2.898438 -5.976562 2.773438 -6.203125 C 2.667969 -6.433594 2.386719 -6.523438 2.15625 -6.417969 C 0.707031 -5.710938 -1.183594 -3.445312 -1.449219 -2.066406 C -1.554688 -1.714844 -1.46875 -1.324219 -1.238281 -1.023438 C -0.9375 -0.652344 -0.441406 -0.476562 0.0351562 -0.566406 C 0.902344 -0.726562 1.660156 -1.839844 2.210938 -2.863281 C 2.28125 -3.003906 2.421875 -2.988281 2.402344 -2.847656 C 2.386719 -2.386719 2.316406 -1.910156 2.210938 -1.449219 C 2.191406 -1.378906 2.175781 -1.308594 2.140625 -1.253906 C 0.652344 1.042969 -0.140625 3.746094 -1.132812 7.671875 C -1.183594 7.902344 -1.042969 8.148438 -0.832031 8.21875 C -0.777344 8.238281 -0.726562 8.238281 -0.671875 8.238281 C -0.496094 8.238281 -0.316406 8.132812 -0.246094 7.953125 C 1.414062 4.046875 2.527344 1.253906 3.039062 -0.867188 C 3.058594 -0.9375 3.074219 -0.988281 3.109375 -1.042969 C 3.589844 -1.75 4.136719 -2.402344 4.71875 -3.003906 C 5.019531 -3.304688 5.480469 -3.375 5.851562 -3.164062 C 9.105469 -1.289062 11.703125 -3.960938 11.71875 -3.976562 C 11.898438 -4.171875 11.898438 -4.453125 11.71875 -4.632812 Z M 11.71875 -4.632812 "/></g></g></g><g fill="#5271ff" fill-opacity="1"><g transform="translate(129.778208, 227.197003)"><g><path d="M 11.453125 -4.773438 C 11.261719 -4.949219 10.976562 -4.949219 10.800781 -4.753906 C 10.730469 -4.703125 5.003906 1.132812 1.203125 -1.644531 C 0.0351562 -2.492188 1.167969 -4.703125 1.183594 -4.71875 C 1.289062 -4.949219 1.203125 -5.214844 0.972656 -5.339844 C 0.742188 -5.445312 0.476562 -5.375 0.355469 -5.144531 C 0.28125 -5.039062 -1.148438 -2.226562 0.652344 -0.902344 C 1.484375 -0.28125 2.511719 0.0546875 3.554688 0.0351562 C 7.371094 0.0351562 11.242188 -3.90625 11.453125 -4.117188 C 11.542969 -4.207031 11.597656 -4.3125 11.597656 -4.4375 C 11.578125 -4.5625 11.542969 -4.683594 11.453125 -4.773438 Z M 0.160156 -6.167969 C 0.230469 -6.167969 0.300781 -6.1875 0.371094 -6.222656 C 0.796875 -6.433594 1.167969 -6.71875 1.503906 -7.054688 C 1.679688 -7.246094 1.660156 -7.53125 1.484375 -7.707031 C 1.289062 -7.882812 1.007812 -7.882812 0.832031 -7.691406 C 0.566406 -7.425781 0.265625 -7.210938 -0.0703125 -7.035156 C -0.246094 -6.945312 -0.355469 -6.71875 -0.300781 -6.523438 C -0.246094 -6.3125 -0.0546875 -6.167969 0.160156 -6.167969 Z M 0.160156 -6.167969 "/></g></g></g><g fill="#5271ff" fill-opacity="1"><g transform="translate(140.628706, 227.197003)"><g><path d="M 13.984375 -4.859375 C 13.789062 -5.039062 13.503906 -5.039062 13.328125 -4.859375 C 13.222656 -4.753906 10.90625 -2.457031 7.777344 -4.753906 C 7.601562 -4.878906 7.371094 -4.878906 7.195312 -4.71875 C 6.910156 -4.472656 6.613281 -4.171875 6.292969 -3.855469 C 6.167969 -3.710938 5.957031 -3.660156 5.78125 -3.730469 C 5.605469 -3.800781 5.480469 -3.960938 5.460938 -4.152344 C 5.460938 -4.527344 5.410156 -4.898438 5.285156 -5.25 C 5.214844 -5.445312 5.019531 -5.570312 4.808594 -5.53125 C 4.597656 -5.515625 4.4375 -5.355469 4.402344 -5.160156 C 4.402344 -5.125 3.835938 -1.996094 1.433594 -1.359375 C 1.21875 -1.289062 0.988281 -1.34375 0.832031 -1.503906 C 0.6875 -1.660156 0.28125 -2.367188 1.203125 -4.613281 C 1.289062 -4.859375 1.183594 -5.125 0.9375 -5.214844 C 0.707031 -5.320312 0.425781 -5.195312 0.335938 -4.96875 C -0.652344 -2.527344 -0.316406 -1.398438 0.125 -0.882812 C 0.511719 -0.460938 1.113281 -0.300781 1.660156 -0.476562 C 2.898438 -0.8125 3.925781 -1.660156 4.507812 -2.792969 C 4.488281 -2.457031 4.4375 -2.121094 4.382812 -1.769531 C 4.367188 -1.695312 4.332031 -1.609375 4.277344 -1.539062 C 2.210938 1.0625 0.335938 4.242188 0.300781 6.238281 C 0.246094 6.769531 0.441406 7.300781 0.8125 7.707031 C 0.972656 7.867188 1.183594 7.972656 1.414062 7.972656 C 1.609375 7.953125 1.804688 7.902344 1.960938 7.796875 C 3.128906 7.019531 4.613281 2.492188 5.195312 -1.113281 C 5.214844 -1.203125 5.25 -1.273438 5.304688 -1.34375 C 5.851562 -2.015625 6.417969 -2.652344 6.984375 -3.21875 C 7.300781 -3.554688 7.777344 -3.625 8.183594 -3.410156 C 10.09375 -2.402344 12.425781 -2.722656 13.984375 -4.207031 C 14.070312 -4.296875 14.125 -4.417969 14.125 -4.542969 C 14.125 -4.667969 14.070312 -4.773438 13.984375 -4.859375 Z M 3.890625 0.8125 C 3.5 2.582031 2.933594 4.277344 2.191406 5.921875 C 1.785156 6.734375 1.609375 7.054688 1.433594 7.019531 C 1.273438 7 1.21875 6.613281 1.238281 6.257812 C 1.253906 4.96875 2.316406 2.847656 3.730469 0.777344 C 3.816406 0.652344 3.925781 0.6875 3.890625 0.8125 Z M 3.890625 0.8125 "/></g></g></g><g fill="#5271ff" fill-opacity="1"><g transform="translate(153.758866, 227.197003)"><g><path d="M 14.777344 -4.277344 C 14.601562 -4.472656 14.300781 -4.488281 14.105469 -4.3125 C 14.054688 -4.261719 8.804688 0.460938 5.550781 -1.679688 C 4.261719 -2.527344 3.941406 -4.578125 3.941406 -4.597656 C 3.925781 -4.808594 3.765625 -4.96875 3.554688 -5.003906 C 3.359375 -5.019531 3.148438 -4.914062 3.058594 -4.738281 C 2.226562 -2.898438 0.761719 -0.566406 0.355469 -0.832031 C 0.316406 -0.832031 0.246094 -0.902344 0.195312 -1.023438 C -0.0195312 -1.609375 0.0546875 -2.246094 0.355469 -2.792969 C 1.023438 -4.171875 2.261719 -5.160156 3.746094 -5.53125 C 3.90625 -5.570312 4.03125 -5.691406 4.082031 -5.851562 C 4.136719 -6.011719 4.082031 -6.1875 3.976562 -6.3125 C 3.855469 -6.417969 3.695312 -6.46875 3.535156 -6.433594 C 1.769531 -6.011719 0.300781 -4.808594 -0.496094 -3.183594 C -0.917969 -2.386719 -0.972656 -1.433594 -0.636719 -0.601562 C -0.476562 -0.195312 -0.0898438 0.0898438 0.355469 0.0898438 L 0.371094 0.0898438 C 1.238281 0.0703125 2.316406 -1.007812 3.058594 -2.175781 C 3.148438 -2.316406 3.304688 -2.386719 3.464844 -2.367188 C 3.625 -2.367188 3.765625 -2.28125 3.835938 -2.140625 C 4.136719 -1.644531 4.542969 -1.21875 5.039062 -0.917969 C 8.890625 1.644531 14.496094 -3.410156 14.742188 -3.625 C 14.832031 -3.710938 14.882812 -3.835938 14.882812 -3.941406 C 14.902344 -4.066406 14.847656 -4.191406 14.777344 -4.277344 Z M 14.777344 -4.277344 "/></g></g></g><g fill="#5271ff" fill-opacity="1"><g transform="translate(168.037704, 227.197003)"><g/></g></g><g fill="#5271ff" fill-opacity="1"><g transform="translate(174.611625, 227.197003)"><g><path d="M 23.050781 -8.253906 C 21.972656 -8.097656 20.929688 -7.972656 19.886719 -7.832031 C 19.746094 -7.8125 19.585938 -7.882812 19.480469 -7.988281 C 19.390625 -8.113281 19.355469 -8.273438 19.410156 -8.414062 L 23.175781 -20.804688 C 23.246094 -21.054688 23.105469 -21.300781 22.855469 -21.390625 C 22.609375 -21.460938 22.363281 -21.320312 22.273438 -21.070312 L 18.277344 -7.917969 C 18.226562 -7.742188 18.085938 -7.617188 17.90625 -7.601562 C 17.484375 -7.566406 17.078125 -7.511719 16.667969 -7.476562 C 16.476562 -7.460938 16.296875 -7.566406 16.210938 -7.742188 C 15.625 -8.996094 14.671875 -10.039062 13.453125 -10.710938 C 13.257812 -10.800781 13.0625 -10.90625 12.851562 -10.996094 C 12.65625 -11.082031 12.535156 -11.3125 12.605469 -11.527344 L 14.972656 -20.046875 C 15.027344 -20.222656 14.992188 -20.382812 14.867188 -20.507812 C 14.742188 -20.628906 14.566406 -20.683594 14.40625 -20.628906 C 14.25 -20.59375 14.125 -20.46875 14.089844 -20.292969 L 11.71875 -11.789062 C 11.648438 -11.5625 11.417969 -11.4375 11.191406 -11.472656 C 7.972656 -12.054688 4.261719 -10.710938 1.769531 -8.734375 C 1.007812 -8.132812 0.726562 -7.566406 0.953125 -7.035156 C 1.433594 -5.902344 5.144531 -5.746094 9.476562 -5.941406 C 9.617188 -5.957031 9.757812 -5.886719 9.847656 -5.78125 C 9.933594 -5.675781 9.96875 -5.515625 9.933594 -5.375 L 8.625 -0.707031 C 8.574219 -0.460938 8.714844 -0.210938 8.960938 -0.160156 C 9.210938 -0.0898438 9.457031 -0.230469 9.527344 -0.460938 L 10.996094 -5.726562 C 11.046875 -5.921875 11.207031 -6.046875 11.402344 -6.0625 C 12.726562 -6.152344 14.070312 -6.277344 15.363281 -6.398438 C 15.574219 -6.417969 15.785156 -6.292969 15.839844 -6.082031 C 16.261719 -4.367188 16.371094 -2.582031 16.140625 -0.832031 C 16.105469 -0.582031 16.261719 -0.371094 16.492188 -0.316406 C 16.742188 -0.265625 16.96875 -0.40625 17.042969 -0.636719 L 18.828125 -6.503906 C 18.878906 -6.683594 19.019531 -6.804688 19.199219 -6.824219 C 20.824219 -7.019531 22.203125 -7.195312 23.175781 -7.335938 C 23.335938 -7.355469 23.492188 -7.460938 23.546875 -7.617188 C 23.617188 -7.777344 23.582031 -7.953125 23.492188 -8.078125 C 23.386719 -8.21875 23.210938 -8.273438 23.050781 -8.253906 Z M 1.804688 -7.40625 C 1.804688 -7.40625 1.804688 -7.601562 2.332031 -8.027344 C 4.4375 -9.667969 7 -10.605469 9.667969 -10.675781 C 10.058594 -10.695312 10.464844 -10.660156 10.871094 -10.589844 C 10.996094 -10.570312 11.101562 -10.5 11.171875 -10.394531 C 11.242188 -10.289062 11.261719 -10.148438 11.226562 -10.023438 L 10.449219 -7.265625 C 10.394531 -7.070312 10.234375 -6.945312 10.039062 -6.929688 C 5.285156 -6.664062 2.050781 -6.789062 1.804688 -7.40625 Z M 11.984375 -7.054688 C 11.828125 -7.035156 11.683594 -7.105469 11.597656 -7.210938 C 11.507812 -7.335938 11.472656 -7.496094 11.527344 -7.617188 L 12.25 -10.234375 C 12.496094 -10.148438 12.761719 -10.023438 13.011719 -9.898438 C 13.824219 -9.441406 14.53125 -8.785156 15.027344 -7.972656 C 15.097656 -7.847656 15.113281 -7.671875 15.042969 -7.53125 C 14.972656 -7.390625 14.832031 -7.300781 14.671875 -7.28125 C 13.753906 -7.195312 12.851562 -7.125 11.984375 -7.054688 Z M 17.128906 -4.117188 C 17.078125 -4.773438 16.96875 -5.410156 16.8125 -6.046875 C 16.792969 -6.167969 16.8125 -6.292969 16.882812 -6.398438 C 16.953125 -6.503906 17.078125 -6.574219 17.199219 -6.59375 L 17.21875 -6.59375 C 17.378906 -6.613281 17.519531 -6.539062 17.605469 -6.433594 C 17.710938 -6.3125 17.75 -6.152344 17.695312 -6.011719 Z M 17.128906 -4.117188 "/></g></g></g><g fill="#5271ff" fill-opacity="1"><g transform="translate(198.097475, 227.197003)"><g><path d="M 14.777344 -4.277344 C 14.601562 -4.472656 14.300781 -4.488281 14.105469 -4.3125 C 14.054688 -4.261719 8.804688 0.460938 5.550781 -1.679688 C 4.261719 -2.527344 3.941406 -4.578125 3.941406 -4.597656 C 3.925781 -4.808594 3.765625 -4.96875 3.554688 -5.003906 C 3.359375 -5.019531 3.148438 -4.914062 3.058594 -4.738281 C 2.226562 -2.898438 0.761719 -0.566406 0.355469 -0.832031 C 0.316406 -0.832031 0.246094 -0.902344 0.195312 -1.023438 C -0.0195312 -1.609375 0.0546875 -2.246094 0.355469 -2.792969 C 1.023438 -4.171875 2.261719 -5.160156 3.746094 -5.53125 C 3.90625 -5.570312 4.03125 -5.691406 4.082031 -5.851562 C 4.136719 -6.011719 4.082031 -6.1875 3.976562 -6.3125 C 3.855469 -6.417969 3.695312 -6.46875 3.535156 -6.433594 C 1.769531 -6.011719 0.300781 -4.808594 -0.496094 -3.183594 C -0.917969 -2.386719 -0.972656 -1.433594 -0.636719 -0.601562 C -0.476562 -0.195312 -0.0898438 0.0898438 0.355469 0.0898438 L 0.371094 0.0898438 C 1.238281 0.0703125 2.316406 -1.007812 3.058594 -2.175781 C 3.148438 -2.316406 3.304688 -2.386719 3.464844 -2.367188 C 3.625 -2.367188 3.765625 -2.28125 3.835938 -2.140625 C 4.136719 -1.644531 4.542969 -1.21875 5.039062 -0.917969 C 8.890625 1.644531 14.496094 -3.410156 14.742188 -3.625 C 14.832031 -3.710938 14.882812 -3.835938 14.882812 -3.941406 C 14.902344 -4.066406 14.847656 -4.191406 14.777344 -4.277344 Z M 14.777344 -4.277344 "/></g></g></g><g fill="#5271ff" fill-opacity="1"><g transform="translate(212.376313, 227.197003)"><g><path d="M 11.453125 -4.773438 C 11.261719 -4.949219 10.976562 -4.949219 10.800781 -4.753906 C 10.730469 -4.703125 5.003906 1.132812 1.203125 -1.644531 C 0.0351562 -2.492188 1.167969 -4.703125 1.183594 -4.71875 C 1.289062 -4.949219 1.203125 -5.214844 0.972656 -5.339844 C 0.742188 -5.445312 0.476562 -5.375 0.355469 -5.144531 C 0.28125 -5.039062 -1.148438 -2.226562 0.652344 -0.902344 C 1.484375 -0.28125 2.511719 0.0546875 3.554688 0.0351562 C 7.371094 0.0351562 11.242188 -3.90625 11.453125 -4.117188 C 11.542969 -4.207031 11.597656 -4.3125 11.597656 -4.4375 C 11.578125 -4.5625 11.542969 -4.683594 11.453125 -4.773438 Z M 0.160156 -6.167969 C 0.230469 -6.167969 0.300781 -6.1875 0.371094 -6.222656 C 0.796875 -6.433594 1.167969 -6.71875 1.503906 -7.054688 C 1.679688 -7.246094 1.660156 -7.53125 1.484375 -7.707031 C 1.289062 -7.882812 1.007812 -7.882812 0.832031 -7.691406 C 0.566406 -7.425781 0.265625 -7.210938 -0.0703125 -7.035156 C -0.246094 -6.945312 -0.355469 -6.71875 -0.300781 -6.523438 C -0.246094 -6.3125 -0.0546875 -6.167969 0.160156 -6.167969 Z M 0.160156 -6.167969 "/></g></g></g><g fill="#5271ff" fill-opacity="1"><g transform="translate(223.22681, 227.197003)"><g><path d="M 16.722656 -4.046875 C 16.632812 -4.136719 16.527344 -4.171875 16.40625 -4.191406 C 16.28125 -4.191406 16.15625 -4.136719 16.070312 -4.046875 C 13.398438 -1.433594 9.511719 -0.53125 7.882812 -1.042969 C 6.503906 -1.484375 5.867188 -2.738281 5.585938 -4.066406 C 5.53125 -4.367188 5.585938 -4.648438 5.746094 -4.898438 C 7.867188 -8.503906 10.113281 -13.699219 9.332031 -14.957031 C 9.15625 -15.238281 8.839844 -15.378906 8.503906 -15.328125 C 6.539062 -15.078125 4.859375 -11.011719 4.527344 -7.390625 C 4.453125 -6.613281 4.453125 -5.851562 4.507812 -5.089844 C 4.527344 -4.84375 4.472656 -4.597656 4.332031 -4.382812 C 4.226562 -4.207031 4.101562 -4.011719 3.976562 -3.835938 C 2.421875 -1.539062 1.359375 -0.796875 0.917969 -0.847656 C 0.6875 -0.867188 0.496094 -1.023438 0.441406 -1.238281 C 0.265625 -2.140625 0.476562 -3.058594 0.988281 -3.800781 C 1.359375 -4.242188 1.910156 -4.738281 2.441406 -4.632812 C 2.738281 -4.542969 2.988281 -4.3125 3.109375 -4.03125 C 3.164062 -3.78125 3.394531 -3.605469 3.640625 -3.640625 C 3.890625 -3.675781 4.066406 -3.90625 4.03125 -4.171875 C 3.855469 -4.808594 3.375 -5.304688 2.738281 -5.496094 C 2.191406 -5.675781 1.308594 -5.605469 0.28125 -4.402344 C -0.28125 -3.746094 -0.847656 -2.015625 -0.425781 -0.902344 C -0.246094 -0.371094 0.230469 0 0.777344 0.0703125 C 0.832031 0.0703125 0.902344 0.0703125 0.953125 0.0703125 C 1.890625 0.0703125 3.074219 -0.9375 4.472656 -2.933594 C 4.527344 -3.003906 4.632812 -3.058594 4.738281 -3.039062 C 4.84375 -3.039062 4.933594 -2.96875 4.96875 -2.882812 C 5.355469 -1.589844 6.347656 -0.582031 7.601562 -0.160156 C 9.6875 0.496094 13.929688 -0.671875 16.722656 -3.394531 C 16.898438 -3.570312 16.898438 -3.855469 16.722656 -4.046875 Z M 5.460938 -7.300781 C 5.746094 -10.535156 7.035156 -13.382812 8.132812 -14.195312 C 8.21875 -14.25 8.34375 -14.265625 8.449219 -14.195312 C 8.539062 -14.140625 8.589844 -14.035156 8.589844 -13.929688 C 8.433594 -12.585938 7.476562 -10.164062 5.710938 -7.019531 C 5.425781 -6.558594 5.425781 -6.984375 5.460938 -7.300781 Z M 5.460938 -7.300781 "/></g></g></g><g fill="#5271ff" fill-opacity="1"><g transform="translate(239.308173, 227.197003)"><g><path d="M 14.777344 -4.277344 C 14.601562 -4.472656 14.300781 -4.488281 14.105469 -4.3125 C 14.054688 -4.261719 8.804688 0.460938 5.550781 -1.679688 C 4.261719 -2.527344 3.941406 -4.578125 3.941406 -4.597656 C 3.925781 -4.808594 3.765625 -4.96875 3.554688 -5.003906 C 3.359375 -5.019531 3.148438 -4.914062 3.058594 -4.738281 C 2.226562 -2.898438 0.761719 -0.566406 0.355469 -0.832031 C 0.316406 -0.832031 0.246094 -0.902344 0.195312 -1.023438 C -0.0195312 -1.609375 0.0546875 -2.246094 0.355469 -2.792969 C 1.023438 -4.171875 2.261719 -5.160156 3.746094 -5.53125 C 3.90625 -5.570312 4.03125 -5.691406 4.082031 -5.851562 C 4.136719 -6.011719 4.082031 -6.1875 3.976562 -6.3125 C 3.855469 -6.417969 3.695312 -6.46875 3.535156 -6.433594 C 1.769531 -6.011719 0.300781 -4.808594 -0.496094 -3.183594 C -0.917969 -2.386719 -0.972656 -1.433594 -0.636719 -0.601562 C -0.476562 -0.195312 -0.0898438 0.0898438 0.355469 0.0898438 L 0.371094 0.0898438 C 1.238281 0.0703125 2.316406 -1.007812 3.058594 -2.175781 C 3.148438 -2.316406 3.304688 -2.386719 3.464844 -2.367188 C 3.625 -2.367188 3.765625 -2.28125 3.835938 -2.140625 C 4.136719 -1.644531 4.542969 -1.21875 5.039062 -0.917969 C 8.890625 1.644531 14.496094 -3.410156 14.742188 -3.625 C 14.832031 -3.710938 14.882812 -3.835938 14.882812 -3.941406 C 14.902344 -4.066406 14.847656 -4.191406 14.777344 -4.277344 Z M 14.777344 -4.277344 "/></g></g></g><g fill="#5271ff" fill-opacity="1"><g transform="translate(253.587011, 227.197003)"><g><path d="M 15.238281 -4.648438 C 15.148438 -4.738281 15.042969 -4.789062 14.917969 -4.789062 C 14.796875 -4.789062 14.671875 -4.738281 14.582031 -4.648438 C 11.527344 -1.660156 6.097656 -1.023438 4.933594 -1.714844 C 4.136719 -2.175781 4.226562 -2.722656 4.789062 -3.816406 C 5.054688 -4.347656 5.355469 -4.96875 4.84375 -5.339844 C 4.367188 -5.691406 3.90625 -5.460938 3.5 -5.25 C 2.917969 -4.914062 2.261719 -4.738281 1.574219 -4.738281 C 1.414062 -4.738281 1.273438 -5.019531 1.308594 -5.125 C 2.296875 -7.300781 1.855469 -7.707031 1.695312 -7.867188 C 1.433594 -8.132812 1.023438 -8.113281 0.53125 -7.8125 C -0.28125 -7.230469 -0.636719 -6.1875 -0.355469 -5.214844 C -0.28125 -4.949219 -0.160156 -4.703125 0.0195312 -4.488281 C 0 -4.296875 0.0898438 -4.117188 0.265625 -4.03125 C 0.371094 -3.976562 0.496094 -3.976562 0.617188 -4.011719 C 0.917969 -3.871094 1.253906 -3.800781 1.589844 -3.800781 C 2.316406 -3.78125 3.023438 -3.941406 3.660156 -4.296875 C 3.90625 -4.417969 3.996094 -4.3125 3.960938 -4.242188 C 3.535156 -3.410156 2.773438 -1.890625 4.472656 -0.902344 C 5.074219 -0.617188 5.746094 -0.496094 6.417969 -0.546875 C 8.890625 -0.546875 12.78125 -1.609375 15.21875 -3.996094 C 15.308594 -4.066406 15.363281 -4.191406 15.363281 -4.3125 C 15.378906 -4.4375 15.328125 -4.5625 15.238281 -4.648438 Z M 0.511719 -5.621094 C 0.40625 -6.132812 0.582031 -6.664062 0.988281 -7 C 0.867188 -6.523438 0.707031 -6.0625 0.511719 -5.605469 Z M 0.511719 -5.621094 "/></g></g></g><g fill="#5271ff" fill-opacity="1"><g transform="translate(268.077908, 227.197003)"><g><path d="M 11.453125 -4.773438 C 11.261719 -4.949219 10.976562 -4.949219 10.800781 -4.753906 C 10.730469 -4.703125 5.003906 1.132812 1.203125 -1.644531 C 0.0351562 -2.492188 1.167969 -4.703125 1.183594 -4.71875 C 1.289062 -4.949219 1.203125 -5.214844 0.972656 -5.339844 C 0.742188 -5.445312 0.476562 -5.375 0.355469 -5.144531 C 0.28125 -5.039062 -1.148438 -2.226562 0.652344 -0.902344 C 1.484375 -0.28125 2.511719 0.0546875 3.554688 0.0351562 C 7.371094 0.0351562 11.242188 -3.90625 11.453125 -4.117188 C 11.542969 -4.207031 11.597656 -4.3125 11.597656 -4.4375 C 11.578125 -4.5625 11.542969 -4.683594 11.453125 -4.773438 Z M 0.160156 -6.167969 C 0.230469 -6.167969 0.300781 -6.1875 0.371094 -6.222656 C 0.796875 -6.433594 1.167969 -6.71875 1.503906 -7.054688 C 1.679688 -7.246094 1.660156 -7.53125 1.484375 -7.707031 C 1.289062 -7.882812 1.007812 -7.882812 0.832031 -7.691406 C 0.566406 -7.425781 0.265625 -7.210938 -0.0703125 -7.035156 C -0.246094 -6.945312 -0.355469 -6.71875 -0.300781 -6.523438 C -0.246094 -6.3125 -0.0546875 -6.167969 0.160156 -6.167969 Z M 0.160156 -6.167969 "/></g></g></g></svg>