<svg xmlns="http://www.w3.org/2000/svg" xmlns:xlink="http://www.w3.org/1999/xlink" width="500" zoomAndPan="magnify" viewBox="0 0 375 374.999991" height="500" preserveAspectRatio="xMidYMid meet" version="1.0"><defs><g/></defs><g fill="#000000" fill-opacity="1"><g transform="translate(182.215013, 269.059348)"><g><path d="M 6.546875 0 L 6.546875 -1.8125 L 10.359375 -1.8125 C 14.597656 -1.8125 17.867188 -2.78125 20.171875 -4.71875 C 22.484375 -6.664062 23.640625 -9.941406 23.640625 -14.546875 L 23.640625 -115.796875 C 23.640625 -120.160156 22.484375 -123.28125 20.171875 -125.15625 C 17.867188 -127.039062 14.597656 -127.984375 10.359375 -127.984375 L 6.546875 -127.984375 L 6.546875 -129.796875 L 62.171875 -129.796875 L 62.171875 -127.984375 L 58.359375 -127.984375 C 53.992188 -127.984375 50.660156 -127.015625 48.359375 -125.078125 C 46.054688 -123.140625 44.90625 -119.867188 44.90625 -115.265625 L 44.90625 -68.71875 L 100.53125 -68.71875 L 100.53125 -115.265625 C 100.53125 -119.867188 99.410156 -123.140625 97.171875 -125.078125 C 94.929688 -127.015625 91.628906 -127.984375 87.265625 -127.984375 L 83.4375 -127.984375 L 83.4375 -129.796875 L 139.078125 -129.796875 L 139.078125 -127.984375 L 135.25 -127.984375 C 131.007812 -127.984375 127.707031 -127.039062 125.34375 -125.15625 C 122.976562 -123.28125 121.796875 -120.160156 121.796875 -115.796875 L 121.796875 -14.546875 C 121.796875 -9.941406 122.976562 -6.664062 125.34375 -4.71875 C 127.707031 -2.78125 131.007812 -1.8125 135.25 -1.8125 L 139.078125 -1.8125 L 139.078125 0 L 83.4375 0 L 83.4375 -1.8125 L 87.265625 -1.8125 C 91.628906 -1.8125 94.929688 -2.78125 97.171875 -4.71875 C 99.410156 -6.664062 100.53125 -9.941406 100.53125 -14.546875 L 100.53125 -66.90625 L 44.90625 -66.90625 L 44.90625 -14.546875 C 44.90625 -9.941406 46.054688 -6.664062 48.359375 -4.71875 C 50.660156 -2.78125 53.992188 -1.8125 58.359375 -1.8125 L 62.171875 -1.8125 L 62.171875 0 Z M 6.546875 0 "/></g></g></g><g fill="#000000" fill-opacity="1"><g transform="translate(63.922136, 217.985947)"><g><path d="M 5.09375 0 L 5.09375 -1.8125 L 12.71875 -1.8125 C 15.144531 -1.8125 17.296875 -2.414062 19.171875 -3.625 C 21.054688 -4.84375 22 -7.875 22 -12.71875 L 22 -116.890625 C 22 -121.742188 21.054688 -124.804688 19.171875 -126.078125 C 17.296875 -127.347656 15.144531 -127.984375 12.71875 -127.984375 L 5.09375 -127.984375 L 5.09375 -129.796875 L 63.625 -129.796875 C 80.832031 -129.796875 93.4375 -126.914062 101.4375 -121.15625 C 109.4375 -115.40625 113.4375 -107.078125 113.4375 -96.171875 C 113.4375 -89.742188 112.191406 -84.285156 109.703125 -79.796875 C 107.222656 -75.316406 103.953125 -71.625 99.890625 -68.71875 C 95.835938 -65.8125 91.382812 -63.507812 86.53125 -61.8125 L 106.71875 -27.453125 C 111.195312 -19.691406 114.738281 -13.992188 117.34375 -10.359375 C 119.957031 -6.722656 122.082031 -4.390625 123.71875 -3.359375 C 125.351562 -2.328125 127.078125 -1.8125 128.890625 -1.8125 L 129.25 -1.8125 L 129.25 0 L 123.265625 0 C 115.984375 0 109.859375 -0.421875 104.890625 -1.265625 C 99.921875 -2.117188 95.679688 -3.816406 92.171875 -6.359375 C 88.660156 -8.910156 85.507812 -12.726562 82.71875 -17.8125 L 59.265625 -60.71875 L 50.71875 -60.71875 L 50.71875 -12.71875 C 50.71875 -7.875 51.65625 -4.84375 53.53125 -3.625 C 55.414062 -2.414062 57.570312 -1.8125 60 -1.8125 L 67.8125 -1.8125 L 67.8125 0 Z M 50.71875 -62.53125 L 60.90625 -62.53125 C 68.65625 -62.53125 74.257812 -65.132812 77.71875 -70.34375 C 81.175781 -75.5625 82.90625 -83.867188 82.90625 -95.265625 C 82.90625 -106.648438 81.144531 -114.945312 77.625 -120.15625 C 74.113281 -125.375 68.414062 -127.984375 60.53125 -127.984375 L 50.71875 -127.984375 Z M 50.71875 -62.53125 "/></g></g></g><g fill="#5271ff" fill-opacity="1"><g transform="translate(59.76779, 253.108474)"><g><path d="M 6.496094 0.582031 L 8.164062 -7.179688 L 7.414062 -7.179688 L 6.292969 -1.964844 L 4.140625 -7.601562 L 1.976562 -1.964844 L 0.867188 -7.179688 L 0.105469 -7.179688 L 1.785156 0.582031 L 4.140625 -5.671875 Z M 6.496094 0.582031 "/></g></g></g><g fill="#5271ff" fill-opacity="1"><g transform="translate(76.150724, 253.108474)"><g><path d="M 5.058594 0 L 5.058594 -0.6875 L 1.53125 -0.6875 L 1.53125 -3.242188 L 4.953125 -3.242188 L 4.953125 -3.9375 L 1.53125 -3.9375 L 1.53125 -6.496094 L 5.058594 -6.496094 L 5.058594 -7.179688 L 0.792969 -7.179688 L 0.792969 0 Z M 5.058594 0 "/></g></g></g><g fill="#5271ff" fill-opacity="1"><g transform="translate(90.11574, 253.108474)"><g><path d="M 5.480469 -1.996094 C 5.480469 -2.503906 5.355469 -2.9375 5.109375 -3.273438 C 4.859375 -3.613281 4.519531 -3.84375 4.109375 -3.960938 C 4.351562 -4.066406 4.5625 -4.253906 4.71875 -4.539062 C 4.792969 -4.667969 4.847656 -4.792969 4.890625 -4.929688 C 4.929688 -5.070312 4.953125 -5.257812 4.953125 -5.5 C 4.953125 -5.734375 4.890625 -5.976562 4.785156 -6.210938 C 4.46875 -6.851562 3.78125 -7.179688 2.734375 -7.179688 L 0.792969 -7.179688 L 0.792969 0 L 2.988281 0 C 3.71875 0 4.296875 -0.160156 4.742188 -0.496094 C 4.964844 -0.664062 5.144531 -0.886719 5.28125 -1.160156 C 5.40625 -1.425781 5.480469 -1.699219 5.480469 -1.996094 Z M 4.214844 -5.386719 C 4.214844 -4.996094 4.097656 -4.710938 3.863281 -4.519531 C 3.632812 -4.328125 3.328125 -4.234375 2.945312 -4.234375 L 1.53125 -4.234375 L 1.53125 -6.472656 L 2.734375 -6.472656 C 3.71875 -6.472656 4.214844 -6.105469 4.214844 -5.386719 Z M 4.742188 -2.144531 C 4.742188 -1.710938 4.59375 -1.363281 4.296875 -1.097656 C 4.011719 -0.835938 3.644531 -0.707031 3.199219 -0.707031 L 1.53125 -0.707031 L 1.53125 -3.496094 L 3.316406 -3.496094 C 3.683594 -3.496094 4.011719 -3.367188 4.296875 -3.113281 C 4.425781 -3 4.53125 -2.863281 4.613281 -2.703125 C 4.699219 -2.535156 4.742188 -2.355469 4.742188 -2.144531 Z M 4.742188 -2.144531 "/></g></g></g><g fill="#5271ff" fill-opacity="1"><g transform="translate(103.92238, 253.108474)"><g/></g></g><g fill="#5271ff" fill-opacity="1"><g transform="translate(114.888757, 253.108474)"><g><path d="M 6.367188 -3.589844 C 6.367188 -4.109375 6.261719 -4.582031 6.070312 -5.027344 C 5.882812 -5.46875 5.617188 -5.851562 5.289062 -6.167969 C 4.953125 -6.484375 4.5625 -6.726562 4.117188 -6.90625 C 3.664062 -7.085938 3.179688 -7.179688 2.671875 -7.179688 L 0.792969 -7.179688 L 0.792969 0 L 2.671875 0 C 3.179688 0 3.664062 -0.0859375 4.117188 -0.265625 C 4.5625 -0.445312 4.953125 -0.695312 5.289062 -1.015625 C 5.617188 -1.332031 5.882812 -1.699219 6.070312 -2.144531 C 6.261719 -2.585938 6.367188 -3.0625 6.367188 -3.589844 Z M 5.648438 -3.589844 C 5.648438 -2.765625 5.355469 -2.082031 4.785156 -1.542969 C 4.214844 -1.003906 3.515625 -0.738281 2.691406 -0.738281 L 1.53125 -0.738281 L 1.53125 -6.441406 L 2.691406 -6.441406 C 3.515625 -6.441406 4.214844 -6.167969 4.785156 -5.640625 C 5.355469 -5.089844 5.648438 -4.402344 5.648438 -3.589844 Z M 5.648438 -3.589844 "/></g></g></g><g fill="#5271ff" fill-opacity="1"><g transform="translate(129.846288, 253.108474)"><g><path d="M 5.058594 0 L 5.058594 -0.6875 L 1.53125 -0.6875 L 1.53125 -3.242188 L 4.953125 -3.242188 L 4.953125 -3.9375 L 1.53125 -3.9375 L 1.53125 -6.496094 L 5.058594 -6.496094 L 5.058594 -7.179688 L 0.792969 -7.179688 L 0.792969 0 Z M 5.058594 0 "/></g></g></g><g fill="#5271ff" fill-opacity="1"><g transform="translate(143.811306, 253.108474)"><g><path d="M 3.367188 0.433594 L 6.621094 -7.179688 L 5.820312 -7.179688 L 3.367188 -1.394531 L 0.90625 -7.179688 L 0.105469 -7.179688 Z M 3.367188 0.433594 "/></g></g></g><g fill="#5271ff" fill-opacity="1"><g transform="translate(158.65269, 253.108474)"><g><path d="M 5.058594 0 L 5.058594 -0.6875 L 1.53125 -0.6875 L 1.53125 -3.242188 L 4.953125 -3.242188 L 4.953125 -3.9375 L 1.53125 -3.9375 L 1.53125 -6.496094 L 5.058594 -6.496094 L 5.058594 -7.179688 L 0.792969 -7.179688 L 0.792969 0 Z M 5.058594 0 "/></g></g></g><g fill="#5271ff" fill-opacity="1"><g transform="translate(172.617709, 253.108474)"><g><path d="M 1.53125 -0.738281 L 1.53125 -7.179688 L 0.792969 -7.179688 L 0.792969 0 L 4.097656 0 L 4.097656 -0.738281 Z M 1.53125 -0.738281 "/></g></g></g><g fill="#5271ff" fill-opacity="1"><g transform="translate(185.041174, 253.108474)"><g><path d="M 7.117188 -3.613281 C 7.117188 -2.789062 6.820312 -2.089844 6.25 -1.519531 C 5.671875 -0.941406 4.972656 -0.65625 4.160156 -0.65625 C 3.347656 -0.65625 2.652344 -0.941406 2.082031 -1.519531 C 1.5 -2.089844 1.214844 -2.789062 1.214844 -3.613281 C 1.214844 -4.414062 1.5 -5.109375 2.082031 -5.691406 C 2.652344 -6.261719 3.347656 -6.558594 4.160156 -6.558594 C 4.972656 -6.558594 5.671875 -6.261719 6.25 -5.691406 C 6.820312 -5.109375 7.117188 -4.414062 7.117188 -3.613281 Z M 7.855469 -3.613281 C 7.855469 -4.117188 7.75 -4.59375 7.5625 -5.046875 C 7.371094 -5.492188 7.105469 -5.882812 6.769531 -6.21875 C 6.429688 -6.546875 6.039062 -6.8125 5.597656 -7 C 5.144531 -7.191406 4.667969 -7.296875 4.160156 -7.296875 C 3.652344 -7.296875 3.167969 -7.191406 2.722656 -7 C 2.28125 -6.8125 1.890625 -6.546875 1.550781 -6.21875 C 1.214844 -5.882812 0.949219 -5.492188 0.761719 -5.046875 C 0.570312 -4.59375 0.476562 -4.117188 0.476562 -3.613281 C 0.476562 -3.105469 0.570312 -2.617188 0.761719 -2.175781 C 0.949219 -1.722656 1.214844 -1.332031 1.550781 -0.992188 C 1.890625 -0.65625 2.28125 -0.390625 2.722656 -0.199219 C 3.167969 -0.0117188 3.652344 0.0859375 4.160156 0.0859375 C 4.667969 0.0859375 5.144531 -0.0117188 5.597656 -0.199219 C 6.039062 -0.390625 6.429688 -0.65625 6.769531 -0.992188 C 7.105469 -1.332031 7.371094 -1.722656 7.5625 -2.175781 C 7.75 -2.617188 7.855469 -3.105469 7.855469 -3.613281 Z M 7.855469 -3.613281 "/></g></g></g><g fill="#5271ff" fill-opacity="1"><g transform="translate(201.487466, 253.108474)"><g><path d="M 1.53125 -3.558594 L 1.53125 -6.472656 L 3.199219 -6.472656 C 3.632812 -6.472656 3.980469 -6.335938 4.246094 -6.070312 C 4.5 -5.796875 4.636719 -5.460938 4.636719 -5.039062 C 4.636719 -4.605469 4.5 -4.253906 4.222656 -3.96875 C 3.949219 -3.695312 3.613281 -3.558594 3.199219 -3.558594 Z M 5.375 -5.015625 C 5.375 -5.648438 5.144531 -6.167969 4.699219 -6.578125 C 4.253906 -6.980469 3.726562 -7.179688 3.09375 -7.179688 L 0.792969 -7.179688 L 0.792969 0 L 1.53125 0 L 1.53125 -2.839844 L 3.09375 -2.839844 C 3.726562 -2.839844 4.265625 -3.042969 4.699219 -3.441406 C 5.144531 -3.863281 5.375 -4.382812 5.375 -5.015625 Z M 5.375 -5.015625 "/></g></g></g><g fill="#5271ff" fill-opacity="1"><g transform="translate(215.188526, 253.108474)"><g><path d="M 5.058594 0 L 5.058594 -0.6875 L 1.53125 -0.6875 L 1.53125 -3.242188 L 4.953125 -3.242188 L 4.953125 -3.9375 L 1.53125 -3.9375 L 1.53125 -6.496094 L 5.058594 -6.496094 L 5.058594 -7.179688 L 0.792969 -7.179688 L 0.792969 0 Z M 5.058594 0 "/></g></g></g><g fill="#5271ff" fill-opacity="1"><g transform="translate(229.153545, 253.108474)"><g><path d="M 1.53125 -3.546875 L 1.53125 -6.472656 L 3.199219 -6.472656 C 3.632812 -6.472656 3.980469 -6.335938 4.246094 -6.0625 C 4.5 -5.785156 4.636719 -5.449219 4.636719 -5.027344 C 4.636719 -4.605469 4.5 -4.253906 4.222656 -3.96875 C 3.949219 -3.683594 3.613281 -3.546875 3.199219 -3.546875 Z M 5.375 -5.015625 C 5.375 -5.628906 5.144531 -6.15625 4.699219 -6.566406 C 4.265625 -6.96875 3.726562 -7.179688 3.09375 -7.179688 L 0.792969 -7.179688 L 0.792969 0 L 1.53125 0 L 1.53125 -2.839844 L 2.386719 -2.839844 L 4.5 0 L 5.492188 0 L 3.273438 -2.839844 C 3.832031 -2.871094 4.308594 -3.074219 4.699219 -3.441406 C 5.144531 -3.855469 5.375 -4.382812 5.375 -5.015625 Z M 5.375 -5.015625 "/></g></g></g><g fill="#5271ff" fill-opacity="1"><g transform="translate(50.72501, 231.774491)"><g><path d="M 25.75 -16.625 C 27.789062 -20.070312 27.027344 -21.957031 26.03125 -22.933594 C 22.800781 -26.097656 12.136719 -24.015625 5.65625 -20.050781 C 1.453125 -17.492188 -0.390625 -14.566406 0.457031 -11.835938 C 0.542969 -11.53125 0.867188 -11.359375 1.171875 -11.445312 C 1.472656 -11.554688 1.625 -11.855469 1.539062 -12.160156 C 0.628906 -15.128906 4.097656 -17.773438 6.242188 -19.09375 C 12.875 -23.128906 22.628906 -24.6875 25.230469 -22.109375 C 26.269531 -21.113281 26.097656 -19.464844 24.773438 -17.1875 C 22.042969 -12.550781 15.5625 -9.730469 11.574219 -9.125 C 11.53125 -9.125 11.445312 -9.210938 11.464844 -9.296875 C 11.488281 -9.386719 11.488281 -9.386719 11.507812 -9.449219 C 12.203125 -13.046875 13.113281 -17.535156 14.4375 -17.859375 C 14.738281 -17.925781 14.914062 -18.230469 14.847656 -18.53125 C 14.761719 -18.835938 14.457031 -19.03125 14.152344 -18.964844 C 12.136719 -18.46875 11.335938 -14.457031 10.402344 -9.777344 C 10.382812 -9.667969 10.273438 -9.601562 10.1875 -9.730469 C 9.449219 -10.859375 8.910156 -11.445312 8.28125 -11.359375 C 7.609375 -11.25 7.414062 -10.492188 7.347656 -10.230469 C 7.066406 -9.386719 7.519531 -8.453125 8.386719 -8.148438 C 8.863281 -7.976562 9.363281 -7.890625 9.882812 -7.867188 C 9.925781 -7.867188 10.015625 -7.867188 9.992188 -7.738281 C 9.34375 -4.636719 8.539062 -1.539062 7.457031 -1.257812 C 7.261719 -1.214844 7.085938 -1.0625 7.042969 -0.867188 C 6.980469 -0.648438 7.042969 -0.457031 7.175781 -0.304688 C 7.324219 -0.152344 7.542969 -0.109375 7.738281 -0.152344 C 9.277344 -0.5625 10.101562 -2.992188 10.816406 -6.175781 C 10.835938 -6.242188 10.859375 -6.265625 10.925781 -6.285156 C 10.96875 -6.285156 11.011719 -6.265625 11.03125 -6.222656 C 12.960938 -3.207031 15.605469 0.261719 19.183594 0.261719 C 19.335938 0.261719 19.484375 0.261719 19.660156 0.238281 C 23.34375 -0.0859375 24.515625 -3.988281 24.578125 -4.140625 C 24.667969 -4.445312 24.492188 -4.769531 24.1875 -4.855469 C 23.886719 -4.941406 23.5625 -4.769531 23.472656 -4.464844 C 23.472656 -4.445312 22.476562 -1.148438 19.550781 -0.890625 C 19.421875 -0.890625 19.3125 -0.890625 19.183594 -0.890625 C 15.972656 -0.890625 13.4375 -4.507812 11.617188 -7.433594 C 11.554688 -7.542969 11.554688 -7.671875 11.597656 -7.804688 C 11.660156 -7.910156 11.769531 -8 11.898438 -8.019531 C 16.320312 -8.691406 22.890625 -11.726562 25.75 -16.625 Z M 8.820312 -9.210938 C 8.386719 -9.386719 8.324219 -9.644531 8.429688 -9.949219 C 8.496094 -10.101562 8.539062 -10.058594 8.582031 -10.035156 C 8.777344 -9.777344 8.972656 -9.515625 9.148438 -9.253906 C 9.234375 -9.125 9.125 -9.101562 9.082031 -9.125 C 8.996094 -9.148438 8.910156 -9.167969 8.820312 -9.210938 Z M 8.820312 -9.210938 "/></g></g></g><g fill="#5271ff" fill-opacity="1"><g transform="translate(76.488211, 231.774491)"><g><path d="M 15.800781 -6.15625 C 15.691406 -6.265625 15.5625 -6.308594 15.410156 -6.308594 C 15.257812 -6.308594 15.109375 -6.265625 15 -6.15625 C 12.398438 -3.554688 8.714844 -2.363281 5.09375 -2.96875 C 4.8125 -3.035156 4.617188 -3.292969 4.660156 -3.578125 C 4.832031 -4.617188 4.746094 -5.679688 4.140625 -6.027344 C 3.75 -6.242188 3.164062 -6.265625 2.472656 -5.09375 C 2.210938 -4.703125 2.125 -4.226562 2.210938 -3.769531 C 2.320312 -3.316406 2.601562 -2.90625 2.992188 -2.667969 C 3.230469 -2.472656 2.949219 -2.144531 2.796875 -1.992188 C 2.382812 -1.496094 1.667969 -1.410156 1.171875 -1.800781 C 0.542969 -2.082031 0.261719 -2.773438 0.5 -3.402344 C 0.78125 -4.550781 1.90625 -5.546875 2.320312 -5.546875 C 2.621094 -5.546875 2.882812 -5.808594 2.882812 -6.113281 C 2.90625 -6.414062 2.644531 -6.675781 2.339844 -6.699219 L 2.320312 -6.699219 C 1.234375 -6.699219 -0.214844 -5.222656 -0.605469 -3.683594 C -0.976562 -2.558594 -0.457031 -1.320312 0.628906 -0.800781 C 1.039062 -0.5625 1.496094 -0.457031 1.972656 -0.433594 C 2.90625 -0.476562 3.726562 -1.039062 4.117188 -1.90625 C 4.160156 -1.972656 4.269531 -2.015625 4.355469 -1.992188 C 7.109375 -1.171875 12.136719 -1.691406 15.800781 -5.332031 C 15.910156 -5.441406 15.972656 -5.59375 15.972656 -5.742188 C 15.972656 -5.894531 15.910156 -6.046875 15.800781 -6.15625 Z M 3.53125 -3.683594 C 3.292969 -3.902344 3.25 -4.25 3.445312 -4.507812 C 3.511719 -4.617188 3.554688 -4.683594 3.597656 -4.746094 C 3.621094 -4.398438 3.597656 -4.03125 3.53125 -3.683594 Z M 3.53125 -3.683594 "/></g></g></g><g fill="#5271ff" fill-opacity="1"><g transform="translate(91.460767, 231.774491)"><g><path d="M 14.371094 -5.679688 C 14.242188 -5.789062 14.109375 -5.851562 13.957031 -5.851562 C 13.808594 -5.851562 13.65625 -5.789062 13.546875 -5.679688 C 11.855469 -3.921875 9.148438 -3.726562 7.21875 -5.203125 C 6.71875 -5.546875 6.046875 -5.527344 5.613281 -5.117188 C 5.460938 -4.964844 5.308594 -4.832031 5.179688 -4.683594 C 4.984375 -4.488281 4.726562 -4.421875 4.464844 -4.507812 C 4.226562 -4.59375 4.054688 -4.789062 4.011719 -5.050781 C 3.945312 -5.441406 3.835938 -5.808594 3.707031 -6.15625 C 3.621094 -6.371094 3.402344 -6.503906 3.164062 -6.503906 C 2.925781 -6.503906 2.730469 -6.351562 2.644531 -6.132812 C 2.015625 -4.445312 0.738281 -1.972656 -0.171875 -1.800781 C -0.238281 -1.777344 -0.410156 -1.753906 -0.671875 -2.039062 C -0.695312 -2.210938 -0.671875 -2.382812 -0.605469 -2.535156 C 0.152344 -4.335938 1.472656 -5.832031 3.144531 -6.847656 C 3.425781 -6.980469 3.554688 -7.324219 3.402344 -7.609375 C 3.273438 -7.890625 2.925781 -8 2.644531 -7.867188 C 0.867188 -7 -1.453125 -4.226562 -1.777344 -2.535156 C -1.90625 -2.101562 -1.800781 -1.625 -1.515625 -1.257812 C -1.148438 -0.800781 -0.542969 -0.585938 0.0429688 -0.695312 C 1.105469 -0.890625 2.039062 -2.253906 2.710938 -3.511719 C 2.796875 -3.683594 2.96875 -3.664062 2.949219 -3.488281 C 2.925781 -2.925781 2.839844 -2.339844 2.710938 -1.777344 C 2.6875 -1.691406 2.667969 -1.605469 2.621094 -1.539062 C 0.800781 1.277344 -0.171875 4.59375 -1.386719 9.40625 C -1.453125 9.6875 -1.277344 9.992188 -1.019531 10.078125 C -0.953125 10.101562 -0.890625 10.101562 -0.824219 10.101562 C -0.605469 10.101562 -0.390625 9.96875 -0.304688 9.753906 C 1.734375 4.964844 3.097656 1.539062 3.726562 -1.0625 C 3.75 -1.148438 3.769531 -1.214844 3.816406 -1.277344 C 4.398438 -2.144531 5.070312 -2.949219 5.789062 -3.683594 C 6.15625 -4.054688 6.71875 -4.140625 7.175781 -3.878906 C 11.164062 -1.582031 14.347656 -4.855469 14.371094 -4.875 C 14.585938 -5.117188 14.585938 -5.460938 14.371094 -5.679688 Z M 14.371094 -5.679688 "/></g></g></g><g fill="#5271ff" fill-opacity="1"><g transform="translate(105.02491, 231.774491)"><g><path d="M 14.046875 -5.851562 C 13.808594 -6.070312 13.460938 -6.070312 13.242188 -5.832031 C 13.15625 -5.765625 6.132812 1.386719 1.472656 -2.015625 C 0.0429688 -3.054688 1.429688 -5.765625 1.453125 -5.789062 C 1.582031 -6.070312 1.472656 -6.394531 1.191406 -6.546875 C 0.910156 -6.675781 0.585938 -6.589844 0.433594 -6.308594 C 0.347656 -6.175781 -1.410156 -2.730469 0.800781 -1.105469 C 1.820312 -0.347656 3.078125 0.0664062 4.355469 0.0429688 C 9.039062 0.0429688 13.785156 -4.789062 14.046875 -5.050781 C 14.152344 -5.160156 14.21875 -5.289062 14.21875 -5.441406 C 14.195312 -5.59375 14.152344 -5.742188 14.046875 -5.851562 Z M 0.195312 -7.566406 C 0.28125 -7.566406 0.367188 -7.585938 0.457031 -7.628906 C 0.976562 -7.890625 1.429688 -8.238281 1.84375 -8.648438 C 2.058594 -8.886719 2.039062 -9.234375 1.820312 -9.449219 C 1.582031 -9.667969 1.234375 -9.667969 1.019531 -9.429688 C 0.695312 -9.101562 0.324219 -8.84375 -0.0859375 -8.625 C -0.304688 -8.519531 -0.433594 -8.238281 -0.367188 -8 C -0.304688 -7.738281 -0.0664062 -7.566406 0.195312 -7.566406 Z M 0.195312 -7.566406 "/></g></g></g><g fill="#5271ff" fill-opacity="1"><g transform="translate(118.329033, 231.774491)"><g><path d="M 17.144531 -5.960938 C 16.90625 -6.175781 16.558594 -6.175781 16.34375 -5.960938 C 16.214844 -5.832031 13.375 -3.011719 9.535156 -5.832031 C 9.320312 -5.980469 9.039062 -5.980469 8.820312 -5.789062 C 8.476562 -5.484375 8.105469 -5.117188 7.714844 -4.726562 C 7.566406 -4.550781 7.304688 -4.488281 7.085938 -4.574219 C 6.871094 -4.660156 6.71875 -4.855469 6.699219 -5.09375 C 6.699219 -5.546875 6.632812 -6.003906 6.480469 -6.4375 C 6.394531 -6.675781 6.15625 -6.828125 5.894531 -6.785156 C 5.636719 -6.761719 5.441406 -6.566406 5.398438 -6.328125 C 5.398438 -6.285156 4.703125 -2.449219 1.753906 -1.667969 C 1.496094 -1.582031 1.214844 -1.648438 1.019531 -1.84375 C 0.84375 -2.039062 0.347656 -2.90625 1.472656 -5.65625 C 1.582031 -5.960938 1.453125 -6.285156 1.148438 -6.394531 C 0.867188 -6.523438 0.519531 -6.371094 0.410156 -6.089844 C -0.800781 -3.097656 -0.390625 -1.710938 0.152344 -1.082031 C 0.628906 -0.5625 1.367188 -0.367188 2.039062 -0.585938 C 3.554688 -0.996094 4.8125 -2.039062 5.527344 -3.425781 C 5.503906 -3.011719 5.441406 -2.601562 5.375 -2.167969 C 5.355469 -2.082031 5.308594 -1.972656 5.246094 -1.886719 C 2.710938 1.300781 0.410156 5.203125 0.367188 7.652344 C 0.304688 8.300781 0.542969 8.953125 0.996094 9.449219 C 1.191406 9.644531 1.453125 9.777344 1.734375 9.777344 C 1.972656 9.753906 2.210938 9.6875 2.40625 9.558594 C 3.835938 8.605469 5.65625 3.054688 6.371094 -1.367188 C 6.394531 -1.472656 6.4375 -1.5625 6.503906 -1.648438 C 7.175781 -2.472656 7.867188 -3.25 8.5625 -3.945312 C 8.953125 -4.355469 9.535156 -4.445312 10.035156 -4.183594 C 12.375 -2.949219 15.238281 -3.339844 17.144531 -5.160156 C 17.253906 -5.265625 17.316406 -5.417969 17.316406 -5.570312 C 17.316406 -5.722656 17.253906 -5.851562 17.144531 -5.960938 Z M 4.769531 0.996094 C 4.292969 3.164062 3.597656 5.246094 2.6875 7.261719 C 2.1875 8.257812 1.972656 8.648438 1.753906 8.605469 C 1.5625 8.582031 1.496094 8.105469 1.515625 7.671875 C 1.539062 6.089844 2.839844 3.488281 4.574219 0.953125 C 4.683594 0.800781 4.8125 0.84375 4.769531 0.996094 Z M 4.769531 0.996094 "/></g></g></g><g fill="#5271ff" fill-opacity="1"><g transform="translate(134.428328, 231.774491)"><g><path d="M 18.121094 -5.246094 C 17.902344 -5.484375 17.535156 -5.503906 17.296875 -5.289062 C 17.230469 -5.222656 10.792969 0.5625 6.804688 -2.058594 C 5.222656 -3.097656 4.832031 -5.613281 4.832031 -5.636719 C 4.8125 -5.894531 4.617188 -6.089844 4.355469 -6.132812 C 4.117188 -6.15625 3.859375 -6.027344 3.75 -5.808594 C 2.730469 -3.554688 0.933594 -0.695312 0.433594 -1.019531 C 0.390625 -1.019531 0.304688 -1.105469 0.238281 -1.257812 C -0.0234375 -1.972656 0.0664062 -2.753906 0.433594 -3.425781 C 1.257812 -5.117188 2.773438 -6.328125 4.59375 -6.785156 C 4.789062 -6.828125 4.941406 -6.980469 5.007812 -7.175781 C 5.070312 -7.371094 5.007812 -7.585938 4.875 -7.738281 C 4.726562 -7.867188 4.53125 -7.933594 4.335938 -7.890625 C 2.167969 -7.371094 0.367188 -5.894531 -0.605469 -3.902344 C -1.128906 -2.925781 -1.191406 -1.753906 -0.78125 -0.738281 C -0.585938 -0.238281 -0.109375 0.109375 0.433594 0.109375 L 0.457031 0.109375 C 1.515625 0.0859375 2.839844 -1.234375 3.75 -2.667969 C 3.859375 -2.839844 4.054688 -2.925781 4.25 -2.90625 C 4.445312 -2.90625 4.617188 -2.796875 4.703125 -2.621094 C 5.070312 -2.015625 5.570312 -1.496094 6.175781 -1.128906 C 10.902344 2.015625 17.773438 -4.183594 18.078125 -4.445312 C 18.183594 -4.550781 18.25 -4.703125 18.25 -4.832031 C 18.273438 -4.984375 18.207031 -5.136719 18.121094 -5.246094 Z M 18.121094 -5.246094 "/></g></g></g><g fill="#5271ff" fill-opacity="1"><g transform="translate(151.936037, 231.774491)"><g/></g></g><g fill="#5271ff" fill-opacity="1"><g transform="translate(159.996522, 231.774491)"><g><path d="M 28.265625 -10.121094 C 26.941406 -9.925781 25.664062 -9.777344 24.382812 -9.601562 C 24.210938 -9.582031 24.015625 -9.667969 23.886719 -9.796875 C 23.777344 -9.949219 23.734375 -10.144531 23.800781 -10.316406 L 28.414062 -25.511719 C 28.503906 -25.816406 28.328125 -26.117188 28.027344 -26.226562 C 27.722656 -26.3125 27.417969 -26.140625 27.308594 -25.835938 L 22.410156 -9.710938 C 22.347656 -9.492188 22.171875 -9.34375 21.957031 -9.320312 C 21.4375 -9.277344 20.9375 -9.210938 20.441406 -9.167969 C 20.199219 -9.148438 19.984375 -9.277344 19.875 -9.492188 C 19.160156 -11.03125 17.992188 -12.3125 16.496094 -13.136719 C 16.257812 -13.242188 16.019531 -13.375 15.757812 -13.480469 C 15.519531 -13.589844 15.367188 -13.871094 15.453125 -14.132812 L 18.359375 -24.578125 C 18.421875 -24.796875 18.378906 -24.992188 18.230469 -25.144531 C 18.078125 -25.292969 17.859375 -25.359375 17.664062 -25.292969 C 17.46875 -25.25 17.316406 -25.101562 17.273438 -24.882812 L 14.371094 -14.457031 C 14.285156 -14.175781 14.003906 -14.023438 13.71875 -14.066406 C 9.777344 -14.78125 5.222656 -13.136719 2.167969 -10.707031 C 1.234375 -9.96875 0.890625 -9.277344 1.171875 -8.625 C 1.753906 -7.238281 6.308594 -7.042969 11.617188 -7.28125 C 11.792969 -7.304688 11.964844 -7.21875 12.074219 -7.085938 C 12.179688 -6.957031 12.226562 -6.761719 12.179688 -6.589844 L 10.578125 -0.867188 C 10.511719 -0.5625 10.6875 -0.261719 10.988281 -0.195312 C 11.292969 -0.109375 11.597656 -0.28125 11.683594 -0.5625 L 13.480469 -7.023438 C 13.546875 -7.261719 13.742188 -7.414062 13.980469 -7.433594 C 15.605469 -7.542969 17.253906 -7.695312 18.835938 -7.847656 C 19.09375 -7.867188 19.355469 -7.714844 19.421875 -7.457031 C 19.941406 -5.355469 20.070312 -3.164062 19.789062 -1.019531 C 19.746094 -0.714844 19.941406 -0.457031 20.222656 -0.390625 C 20.527344 -0.324219 20.808594 -0.5 20.894531 -0.78125 L 23.082031 -7.976562 C 23.148438 -8.191406 23.324219 -8.34375 23.539062 -8.367188 C 25.53125 -8.605469 27.222656 -8.820312 28.414062 -8.996094 C 28.609375 -9.015625 28.804688 -9.148438 28.871094 -9.34375 C 28.957031 -9.535156 28.914062 -9.753906 28.804688 -9.90625 C 28.675781 -10.078125 28.460938 -10.144531 28.265625 -10.121094 Z M 2.210938 -9.082031 C 2.210938 -9.082031 2.210938 -9.320312 2.859375 -9.839844 C 5.441406 -11.855469 8.582031 -13.003906 11.855469 -13.089844 C 12.332031 -13.113281 12.832031 -13.070312 13.332031 -12.984375 C 13.480469 -12.960938 13.613281 -12.875 13.699219 -12.746094 C 13.785156 -12.613281 13.808594 -12.441406 13.761719 -12.289062 L 12.808594 -8.910156 C 12.746094 -8.671875 12.550781 -8.519531 12.3125 -8.496094 C 6.480469 -8.171875 2.515625 -8.324219 2.210938 -9.082031 Z M 14.695312 -8.648438 C 14.5 -8.625 14.328125 -8.714844 14.21875 -8.84375 C 14.109375 -8.996094 14.066406 -9.191406 14.132812 -9.34375 L 15.019531 -12.550781 C 15.324219 -12.441406 15.648438 -12.289062 15.953125 -12.136719 C 16.949219 -11.574219 17.816406 -10.773438 18.421875 -9.777344 C 18.511719 -9.625 18.53125 -9.40625 18.445312 -9.234375 C 18.359375 -9.058594 18.183594 -8.953125 17.992188 -8.929688 C 16.863281 -8.820312 15.757812 -8.734375 14.695312 -8.648438 Z M 21.003906 -5.050781 C 20.9375 -5.851562 20.808594 -6.632812 20.613281 -7.414062 C 20.589844 -7.566406 20.613281 -7.714844 20.699219 -7.847656 C 20.785156 -7.976562 20.9375 -8.0625 21.089844 -8.085938 L 21.113281 -8.085938 C 21.304688 -8.105469 21.480469 -8.019531 21.589844 -7.890625 C 21.71875 -7.738281 21.761719 -7.542969 21.695312 -7.371094 Z M 21.003906 -5.050781 "/></g></g></g><g fill="#5271ff" fill-opacity="1"><g transform="translate(188.793232, 231.774491)"><g><path d="M 18.121094 -5.246094 C 17.902344 -5.484375 17.535156 -5.503906 17.296875 -5.289062 C 17.230469 -5.222656 10.792969 0.5625 6.804688 -2.058594 C 5.222656 -3.097656 4.832031 -5.613281 4.832031 -5.636719 C 4.8125 -5.894531 4.617188 -6.089844 4.355469 -6.132812 C 4.117188 -6.15625 3.859375 -6.027344 3.75 -5.808594 C 2.730469 -3.554688 0.933594 -0.695312 0.433594 -1.019531 C 0.390625 -1.019531 0.304688 -1.105469 0.238281 -1.257812 C -0.0234375 -1.972656 0.0664062 -2.753906 0.433594 -3.425781 C 1.257812 -5.117188 2.773438 -6.328125 4.59375 -6.785156 C 4.789062 -6.828125 4.941406 -6.980469 5.007812 -7.175781 C 5.070312 -7.371094 5.007812 -7.585938 4.875 -7.738281 C 4.726562 -7.867188 4.53125 -7.933594 4.335938 -7.890625 C 2.167969 -7.371094 0.367188 -5.894531 -0.605469 -3.902344 C -1.128906 -2.925781 -1.191406 -1.753906 -0.78125 -0.738281 C -0.585938 -0.238281 -0.109375 0.109375 0.433594 0.109375 L 0.457031 0.109375 C 1.515625 0.0859375 2.839844 -1.234375 3.75 -2.667969 C 3.859375 -2.839844 4.054688 -2.925781 4.25 -2.90625 C 4.445312 -2.90625 4.617188 -2.796875 4.703125 -2.621094 C 5.070312 -2.015625 5.570312 -1.496094 6.175781 -1.128906 C 10.902344 2.015625 17.773438 -4.183594 18.078125 -4.445312 C 18.183594 -4.550781 18.25 -4.703125 18.25 -4.832031 C 18.273438 -4.984375 18.207031 -5.136719 18.121094 -5.246094 Z M 18.121094 -5.246094 "/></g></g></g><g fill="#5271ff" fill-opacity="1"><g transform="translate(206.30094, 231.774491)"><g><path d="M 14.046875 -5.851562 C 13.808594 -6.070312 13.460938 -6.070312 13.242188 -5.832031 C 13.15625 -5.765625 6.132812 1.386719 1.472656 -2.015625 C 0.0429688 -3.054688 1.429688 -5.765625 1.453125 -5.789062 C 1.582031 -6.070312 1.472656 -6.394531 1.191406 -6.546875 C 0.910156 -6.675781 0.585938 -6.589844 0.433594 -6.308594 C 0.347656 -6.175781 -1.410156 -2.730469 0.800781 -1.105469 C 1.820312 -0.347656 3.078125 0.0664062 4.355469 0.0429688 C 9.039062 0.0429688 13.785156 -4.789062 14.046875 -5.050781 C 14.152344 -5.160156 14.21875 -5.289062 14.21875 -5.441406 C 14.195312 -5.59375 14.152344 -5.742188 14.046875 -5.851562 Z M 0.195312 -7.566406 C 0.28125 -7.566406 0.367188 -7.585938 0.457031 -7.628906 C 0.976562 -7.890625 1.429688 -8.238281 1.84375 -8.648438 C 2.058594 -8.886719 2.039062 -9.234375 1.820312 -9.449219 C 1.582031 -9.667969 1.234375 -9.667969 1.019531 -9.429688 C 0.695312 -9.101562 0.324219 -8.84375 -0.0859375 -8.625 C -0.304688 -8.519531 -0.433594 -8.238281 -0.367188 -8 C -0.304688 -7.738281 -0.0664062 -7.566406 0.195312 -7.566406 Z M 0.195312 -7.566406 "/></g></g></g><g fill="#5271ff" fill-opacity="1"><g transform="translate(219.605063, 231.774491)"><g><path d="M 20.503906 -4.964844 C 20.394531 -5.070312 20.265625 -5.117188 20.113281 -5.136719 C 19.960938 -5.136719 19.8125 -5.070312 19.703125 -4.964844 C 16.429688 -1.753906 11.660156 -0.648438 9.667969 -1.277344 C 7.976562 -1.820312 7.195312 -3.359375 6.847656 -4.984375 C 6.785156 -5.355469 6.847656 -5.699219 7.042969 -6.003906 C 9.644531 -10.425781 12.398438 -16.796875 11.445312 -18.335938 C 11.226562 -18.683594 10.835938 -18.855469 10.425781 -18.792969 C 8.019531 -18.488281 5.960938 -13.503906 5.546875 -9.058594 C 5.460938 -8.105469 5.460938 -7.175781 5.527344 -6.242188 C 5.546875 -5.9375 5.484375 -5.636719 5.308594 -5.375 C 5.179688 -5.160156 5.027344 -4.921875 4.875 -4.703125 C 2.96875 -1.886719 1.667969 -0.976562 1.128906 -1.039062 C 0.84375 -1.0625 0.605469 -1.257812 0.542969 -1.515625 C 0.324219 -2.621094 0.585938 -3.75 1.214844 -4.660156 C 1.667969 -5.203125 2.339844 -5.808594 2.992188 -5.679688 C 3.359375 -5.570312 3.664062 -5.289062 3.816406 -4.941406 C 3.878906 -4.636719 4.160156 -4.421875 4.464844 -4.464844 C 4.769531 -4.507812 4.984375 -4.789062 4.941406 -5.117188 C 4.726562 -5.894531 4.140625 -6.503906 3.359375 -6.742188 C 2.6875 -6.957031 1.605469 -6.871094 0.347656 -5.398438 C -0.347656 -4.59375 -1.039062 -2.472656 -0.519531 -1.105469 C -0.304688 -0.457031 0.28125 0 0.953125 0.0859375 C 1.019531 0.0859375 1.105469 0.0859375 1.171875 0.0859375 C 2.320312 0.0859375 3.769531 -1.148438 5.484375 -3.597656 C 5.546875 -3.683594 5.679688 -3.75 5.808594 -3.726562 C 5.9375 -3.726562 6.046875 -3.640625 6.089844 -3.53125 C 6.566406 -1.949219 7.78125 -0.714844 9.320312 -0.195312 C 11.878906 0.605469 17.078125 -0.824219 20.503906 -4.160156 C 20.722656 -4.378906 20.722656 -4.726562 20.503906 -4.964844 Z M 6.699219 -8.953125 C 7.042969 -12.917969 8.625 -16.40625 9.96875 -17.40625 C 10.078125 -17.46875 10.230469 -17.492188 10.359375 -17.40625 C 10.46875 -17.339844 10.535156 -17.210938 10.535156 -17.078125 C 10.339844 -15.433594 9.167969 -12.464844 7 -8.605469 C 6.652344 -8.042969 6.652344 -8.5625 6.699219 -8.953125 Z M 6.699219 -8.953125 "/></g></g></g><g fill="#5271ff" fill-opacity="1"><g transform="translate(239.3229, 231.774491)"><g><path d="M 18.121094 -5.246094 C 17.902344 -5.484375 17.535156 -5.503906 17.296875 -5.289062 C 17.230469 -5.222656 10.792969 0.5625 6.804688 -2.058594 C 5.222656 -3.097656 4.832031 -5.613281 4.832031 -5.636719 C 4.8125 -5.894531 4.617188 -6.089844 4.355469 -6.132812 C 4.117188 -6.15625 3.859375 -6.027344 3.75 -5.808594 C 2.730469 -3.554688 0.933594 -0.695312 0.433594 -1.019531 C 0.390625 -1.019531 0.304688 -1.105469 0.238281 -1.257812 C -0.0234375 -1.972656 0.0664062 -2.753906 0.433594 -3.425781 C 1.257812 -5.117188 2.773438 -6.328125 4.59375 -6.785156 C 4.789062 -6.828125 4.941406 -6.980469 5.007812 -7.175781 C 5.070312 -7.371094 5.007812 -7.585938 4.875 -7.738281 C 4.726562 -7.867188 4.53125 -7.933594 4.335938 -7.890625 C 2.167969 -7.371094 0.367188 -5.894531 -0.605469 -3.902344 C -1.128906 -2.925781 -1.191406 -1.753906 -0.78125 -0.738281 C -0.585938 -0.238281 -0.109375 0.109375 0.433594 0.109375 L 0.457031 0.109375 C 1.515625 0.0859375 2.839844 -1.234375 3.75 -2.667969 C 3.859375 -2.839844 4.054688 -2.925781 4.25 -2.90625 C 4.445312 -2.90625 4.617188 -2.796875 4.703125 -2.621094 C 5.070312 -2.015625 5.570312 -1.496094 6.175781 -1.128906 C 10.902344 2.015625 17.773438 -4.183594 18.078125 -4.445312 C 18.183594 -4.550781 18.25 -4.703125 18.25 -4.832031 C 18.273438 -4.984375 18.207031 -5.136719 18.121094 -5.246094 Z M 18.121094 -5.246094 "/></g></g></g><g fill="#5271ff" fill-opacity="1"><g transform="translate(256.830619, 231.774491)"><g><path d="M 18.683594 -5.699219 C 18.574219 -5.808594 18.445312 -5.875 18.292969 -5.875 C 18.140625 -5.875 17.992188 -5.808594 17.882812 -5.699219 C 14.132812 -2.039062 7.476562 -1.257812 6.046875 -2.101562 C 5.070312 -2.667969 5.179688 -3.339844 5.875 -4.683594 C 6.199219 -5.332031 6.566406 -6.089844 5.9375 -6.546875 C 5.355469 -6.980469 4.789062 -6.699219 4.292969 -6.4375 C 3.578125 -6.027344 2.773438 -5.808594 1.929688 -5.808594 C 1.734375 -5.808594 1.5625 -6.15625 1.605469 -6.285156 C 2.816406 -8.953125 2.277344 -9.449219 2.082031 -9.644531 C 1.753906 -9.96875 1.257812 -9.949219 0.648438 -9.582031 C -0.347656 -8.863281 -0.78125 -7.585938 -0.433594 -6.394531 C -0.347656 -6.070312 -0.195312 -5.765625 0.0234375 -5.503906 C 0 -5.265625 0.109375 -5.050781 0.324219 -4.941406 C 0.457031 -4.875 0.605469 -4.875 0.757812 -4.921875 C 1.128906 -4.746094 1.539062 -4.660156 1.949219 -4.660156 C 2.839844 -4.636719 3.707031 -4.832031 4.488281 -5.265625 C 4.789062 -5.417969 4.898438 -5.289062 4.855469 -5.203125 C 4.335938 -4.183594 3.402344 -2.320312 5.484375 -1.105469 C 6.222656 -0.757812 7.042969 -0.605469 7.867188 -0.671875 C 10.902344 -0.671875 15.671875 -1.972656 18.664062 -4.898438 C 18.769531 -4.984375 18.835938 -5.136719 18.835938 -5.289062 C 18.855469 -5.441406 18.792969 -5.59375 18.683594 -5.699219 Z M 0.628906 -6.894531 C 0.5 -7.519531 0.714844 -8.171875 1.214844 -8.582031 C 1.0625 -8 0.867188 -7.433594 0.628906 -6.871094 Z M 0.628906 -6.894531 "/></g></g></g><g fill="#5271ff" fill-opacity="1"><g transform="translate(274.598349, 231.774491)"><g><path d="M 14.046875 -5.851562 C 13.808594 -6.070312 13.460938 -6.070312 13.242188 -5.832031 C 13.15625 -5.765625 6.132812 1.386719 1.472656 -2.015625 C 0.0429688 -3.054688 1.429688 -5.765625 1.453125 -5.789062 C 1.582031 -6.070312 1.472656 -6.394531 1.191406 -6.546875 C 0.910156 -6.675781 0.585938 -6.589844 0.433594 -6.308594 C 0.347656 -6.175781 -1.410156 -2.730469 0.800781 -1.105469 C 1.820312 -0.347656 3.078125 0.0664062 4.355469 0.0429688 C 9.039062 0.0429688 13.785156 -4.789062 14.046875 -5.050781 C 14.152344 -5.160156 14.21875 -5.289062 14.21875 -5.441406 C 14.195312 -5.59375 14.152344 -5.742188 14.046875 -5.851562 Z M 0.195312 -7.566406 C 0.28125 -7.566406 0.367188 -7.585938 0.457031 -7.628906 C 0.976562 -7.890625 1.429688 -8.238281 1.84375 -8.648438 C 2.058594 -8.886719 2.039062 -9.234375 1.820312 -9.449219 C 1.582031 -9.667969 1.234375 -9.667969 1.019531 -9.429688 C 0.695312 -9.101562 0.324219 -8.84375 -0.0859375 -8.625 C -0.304688 -8.519531 -0.433594 -8.238281 -0.367188 -8 C -0.304688 -7.738281 -0.0664062 -7.566406 0.195312 -7.566406 Z M 0.195312 -7.566406 "/></g></g></g></svg>